<svg width="19" height="18" viewBox="0 0 19 18" fill="none" xmlns="http://www.w3.org/2000/svg">
<path d="M17.9487 0.134766H1.06284C0.533291 0.134766 0.104004 0.536677 0.104004 1.03246V8.56012C0.104004 9.0559 0.533291 9.45781 1.06284 9.45781H4.52734V16.8415C4.52703 17.0795 4.62779 17.3079 4.80742 17.4762C4.98705 17.6446 5.23081 17.7392 5.485 17.7392H13.5254C14.055 17.7392 14.4842 17.3373 14.4842 16.8415V9.46111H17.9487C18.2029 9.46111 18.4467 9.3665 18.6263 9.19811C18.806 9.02973 18.9067 8.8014 18.9064 8.56342V1.03246C18.9067 0.794477 18.806 0.566142 18.6263 0.397761C18.4467 0.229379 18.2029 0.134766 17.9487 0.134766ZM1.21541 1.1764H8.9495V8.41728H1.21541V1.1764ZM13.3728 16.6987H5.63875V9.46111H13.3728V16.6987ZM17.795 8.41728H10.0609V1.1764H17.795V8.41728Z" fill="#993399"/>
</svg>
